<?xml version="1.0" standalone="no"?>
<!DOCTYPE svg PUBLIC "-//W3C//DTD SVG 1.1//EN" "http://www.w3.org/Graphics/SVG/1.1/DTD/svg11.dtd" >
<svg xmlns="http://www.w3.org/2000/svg">
<metadata>
This is a custom SVG webfont generated by Font Squirrel.
Copyright   : Copyright c 2010 by Fabian Widmer All rights reserved
Designer    : Fabian Widmer
Foundry     : Fabian Widmer
Foundry URL : httpwwwletterwerkch
</metadata>
<defs>
<font id="CarrosserieLight" horiz-adv-x="1048" >
<font-face units-per-em="2048" ascent="1536" descent="-512" />
<missing-glyph horiz-adv-x="512" />
<glyph unicode=" "  horiz-adv-x="512" />
<glyph unicode="&#x09;" horiz-adv-x="512" />
<glyph unicode="&#xa0;" horiz-adv-x="512" />
<glyph unicode="!" horiz-adv-x="622" d="M270 0v193h174v-193h-174zM279 385v1049h157v-1049h-157z" />
<glyph unicode="#" horiz-adv-x="1349" d="M98 616v136h258l35 249h-248v136h269l43 288h141l-41 -288h256l43 288h141l-41 -288h236v-136h-256l-35 -249h246v-136h-266l-39 -276h-142l39 276h-258l-39 -276h-141l39 276h-240zM500 752h256l35 249h-256z" />
<glyph unicode="$" horiz-adv-x="956" d="M115 156l131 112q90 -135 223 -135q92 0 155.5 65.5t63.5 157.5q0 76 -54 150t-185 168q-160 113 -227.5 209t-67.5 207q0 133 85 231t214 119v182l112 -23v-157q154 -18 266 -152l-124 -102q-84 106 -189 106q-84 0 -144.5 -57t-60.5 -141q0 -72 47.5 -134.5 t167.5 -148.5q176 -125 250 -227.5t74 -229.5q0 -135 -88 -236.5t-217 -127.5v-185l-111 23v156q-192 14 -321 170z" />
<glyph unicode="%" horiz-adv-x="1746" d="M129 1063q0 160 83 270.5t214 110.5t214 -110.5t83 -270.5q0 -162 -81 -269.5t-216 -107.5t-216 107.5t-81 269.5zM268 1062.5q0 -104.5 42 -177t116 -72.5t116 72.5t42 177t-43 178.5t-115 74t-115 -74t-43 -178.5zM453 0l680 1434h153l-680 -1434h-153zM1024 371 q0 160 83 270.5t214 110.5t214 -111t83 -270q0 -162 -81 -269.5t-216 -107.5t-216 107.5t-81 269.5zM1163 370.5q0 -104.5 42 -177t116 -72.5t116 72.5t42 177t-43 178.5t-115 74t-115 -74t-43 -178.5z" />
<glyph unicode="&#x26;" horiz-adv-x="1282" d="M119 469q0 301 246 487l-185 478h660v-144h-447l156 -391q-127 -59 -197.5 -167.5t-70.5 -256.5q0 -145 79.5 -243.5t198.5 -98.5q129 0 204 119q73 116 73 326v12h-195v147h621v-147h-277l2 -59q0 -132 -32 -233q-38 -124 -105.5 -188.5t-139 -94t-149.5 -29.5 q-201 0 -321.5 142t-120.5 341z" />
<glyph unicode="(" horiz-adv-x="620" d="M147 786q0 205 52.5 452t136.5 433l135 -47q-160 -410 -160 -840q0 -451 164 -960l-139 -39q-100 301 -144.5 526t-44.5 475z" />
<glyph unicode=")" horiz-adv-x="620" d="M145 -176q164 520 164 960q0 424 -162 840l136 47q84 -186 136 -433t52 -452q0 -250 -43 -475t-143 -526z" />
<glyph unicode="*" horiz-adv-x="1101" d="M160 1309l43 133l295 -105l-15 314h135l-14 -314l295 105l43 -133l-307 -74l196 -246l-112 -82l-168 269l-168 -269l-113 82l197 246z" />
<glyph unicode="+" horiz-adv-x="972" d="M100 586v147h308v314h153v-314h311v-147h-311v-312h-153v312h-308z" />
<glyph unicode="," horiz-adv-x="542" d="M174 205h180l-55 -424h-125v424z" />
<glyph unicode="-" horiz-adv-x="698" d="M111 586v155h479v-155h-479z" />
<glyph unicode="." horiz-adv-x="548" d="M180 0v205h189v-205h-189z" />
<glyph unicode="/" horiz-adv-x="929" d="M109 -182l557 1757h155l-555 -1757h-157z" />
<glyph unicode="0" d="M92 715q0 338 115 533.5t317.5 195.5t317 -195.5t114.5 -533.5q0 -344 -113.5 -533.5t-318.5 -189.5t-318.5 189.5t-113.5 533.5zM256 715q0 -264 70.5 -419t197.5 -155t198 155t71 419t-73 420.5t-196 156.5t-195.5 -156.5t-72.5 -420.5z" />
<glyph unicode="1" horiz-adv-x="821" d="M109 1362l421 78v-1295h215v-145h-593v145h221v1121l-244 -54z" />
<glyph unicode="2" horiz-adv-x="974" d="M70 0l366 547q150 223 194 325.5t44 190.5q0 100 -59.5 165.5t-149.5 65.5q-158 0 -227 -209l-146 89q137 272 379 272q162 0 264.5 -109.5t102.5 -261.5q0 -219 -213 -528l-271 -393h480v-154h-764z" />
<glyph unicode="3" horiz-adv-x="1011" d="M80 238l141 71q102 -178 254 -178q106 0 186 85t80 216q0 150 -119.5 247t-334.5 97l-68 -2l414 510h-443v143h728l-431 -538q203 -33 309.5 -159t106.5 -298q0 -188 -124 -316t-304 -128q-131 0 -233.5 67.5t-161.5 182.5z" />
<glyph unicode="4" horiz-adv-x="1038" d="M86 303l326 1131h161l-80 -279l-128 -439q-61 -208 -82 -270h374v562h156v-562h135v-143h-135v-303h-156v303h-571z" />
<glyph unicode="5" horiz-adv-x="1034" d="M106 240l144 69q102 -178 252 -178q106 0 186 89t80 218q0 147 -95 239.5t-247 92.5q-117 0 -248 -65l96 722h566v-145h-437l-53 -383q59 18 121 19q203 0 332 -132.5t129 -349.5q0 -193 -126 -320.5t-304 -127.5q-133 0 -235 67.5t-161 184.5z" />
<glyph unicode="6" horiz-adv-x="1075" d="M119 690q0 358 136 556t351 198q195 0 328 -168l-121 -107q-96 127 -219 127q-143 0 -232.5 -167.5t-89.5 -436.5q33 96 116 159.5t194 63.5q164 0 277.5 -124.5t113.5 -329.5q0 -211 -119 -341t-295 -130q-205 0 -322.5 174t-117.5 526zM301 451q0 -133 76 -224.5 t182 -91.5q104 0 181 92t77 224q0 135 -75.5 223t-182.5 88q-111 0 -184.5 -82t-73.5 -229z" />
<glyph unicode="7" horiz-adv-x="894" d="M86 1274v153h737l-512 -1427h-170l465 1274h-520z" />
<glyph unicode="8" horiz-adv-x="1058" d="M104 383q0 119 73 223.5t214 171.5q-223 137 -223 334q0 145 102.5 241.5t255.5 96.5q162 0 264.5 -95t102.5 -241q0 -201 -223 -340q287 -156 286 -397q0 -156 -121.5 -274.5t-310.5 -118.5q-178 0 -299 114.5t-121 284.5zM266 383q0 -106 75 -181t185 -75 q119 0 192 73.5t73 176.5q0 180 -289 328q-236 -134 -236 -322zM324 1112q0 -150 227 -272h2q182 127 182 268q0 90 -59.5 144.5t-151.5 54.5q-86 0 -143 -53.5t-57 -141.5z" />
<glyph unicode="9" horiz-adv-x="1058" d="M86 991.5q0 198.5 119 326.5t291 128q205 0 323.5 -172t118.5 -510q0 -360 -133 -567t-367 -207q-190 0 -332 160l125 110q94 -121 222 -121q90 0 157.5 58.5t102.5 156t51 197.5t16 207q-33 -94 -114.5 -154.5t-192.5 -60.5q-160 0 -273.5 125t-113.5 323.5zM238 989 q0 -131 75.5 -216t180.5 -85q109 0 183.5 79t74.5 218q0 133 -76 222t-182.5 89t-181 -88t-74.5 -219z" />
<glyph unicode=":" horiz-adv-x="589" d="M199 0v205h190v-205h-190zM199 688v205h190v-205h-190z" />
<glyph unicode=";" horiz-adv-x="589" d="M197 205h180l-58 -424h-122v424zM199 688v205h190v-205h-190z" />
<glyph unicode="&#x3c;" horiz-adv-x="958" d="M127 717q236 213 590 481l108 -111q-205 -152 -473 -370q242 -199 473 -369l-108 -110q-348 264 -590 479z" />
<glyph unicode="=" horiz-adv-x="1155" d="M156 401v152h843v-152h-843zM156 766v152h843v-152h-843z" />
<glyph unicode="&#x3e;" horiz-adv-x="958" d="M141 348q231 170 473 369q-268 219 -473 370l109 111q354 -268 590 -481q-242 -215 -590 -479z" />
<glyph unicode="?" horiz-adv-x="1001" d="M113 1194q137 254 403 254q174 0 297 -121t123 -295q0 -162 -98.5 -278.5t-276.5 -149.5v-219h-158v322q178 14 275.5 101t97.5 220q0 113 -77.5 192.5t-182.5 79.5q-164 0 -272 -182zM395 0v193h174v-193h-174z" />
<glyph unicode="@" horiz-adv-x="1945" d="M188 672q0 211 100.5 402.5t297 317.5t442.5 126q328 0 549 -198t221 -484q0 -225 -117.5 -382t-269.5 -157q-78 0 -136 38t-79 107q-88 -141 -264 -141q-125 0 -212 94t-87 260q0 182 132 314.5t325 132.5q109 0 213 -45v-453q0 -94 28.5 -132t87.5 -38q82 0 155 114 t73 269q0 236 -179.5 397.5t-443.5 161.5q-270 0 -475 -204.5t-205 -499.5t203 -481.5t481 -186.5q158 0 307 59l45 -122q-162 -72 -354 -72q-365 0 -601.5 224.5t-236.5 578.5zM795 645q0 -102 46 -155.5t115 -53.5q80 0 135.5 59.5t55.5 159.5l2 295q-34 6 -65 6 q-106 0 -186 -69q-103 -90 -103 -242z" />
<glyph unicode="A" d="M80 0l166 690q106 430 207 744h143q100 -313 207 -744l166 -690h-168l-62 276h-430l-61 -276h-168zM340 426h369q-70 348 -185 760q-114 -412 -184 -760z" />
<glyph unicode="B" horiz-adv-x="1077" d="M178 4v1421q117 16 254 17q244 0 374 -105.5t130 -277.5q0 -104 -56.5 -189.5t-148.5 -126.5q109 -37 176.5 -130t67.5 -212q0 -184 -133 -297.5t-377 -113.5q-170 0 -287 14zM334 137q45 -4 129 -4q172 0 259 75t87 198q0 119 -85 190.5t-237 71.5q-94 0 -153 -6v-525z M334 811q45 -4 147 -4q141 0 220 68.5t79 183.5q0 102 -82 169.5t-233 67.5q-86 0 -131 -6v-479z" />
<glyph unicode="C" horiz-adv-x="1019" d="M109 731q0 299 137 505t321 206q111 0 206 -77t157 -222l-144 -76q-80 215 -219 215q-111 0 -203 -158.5t-92 -390.5q0 -274 89.5 -431t209.5 -157q74 0 138.5 76t97.5 205l145 -86q-59 -162 -164.5 -254t-218.5 -92q-186 0 -323 196.5t-137 540.5z" />
<glyph unicode="D" horiz-adv-x="1083" d="M166 0v1434h178q303 0 469 -182.5t166 -530.5t-155.5 -534.5t-432.5 -186.5h-225zM324 152h57q436 0 436 567q0 254 -109.5 408.5t-324.5 154.5h-59v-1130z" />
<glyph unicode="E" horiz-adv-x="948" d="M172 0v1434h668v-154h-514v-549h483v-153h-483v-424h514v-154h-668z" />
<glyph unicode="F" horiz-adv-x="888" d="M172 0v1434h631v-154h-475v-547h444v-155h-444v-578h-156z" />
<glyph unicode="G" horiz-adv-x="1116" d="M102 733q0 291 136.5 500t330.5 209q115 0 216.5 -79t160.5 -220l-141 -76q-84 215 -236 215q-123 0 -214 -164t-91 -385q0 -283 93.5 -435.5t212 -152.5t200.5 126t82 317h-262v151h418q4 -45 4 -116q0 -301 -136.5 -465t-306.5 -164q-190 0 -328.5 198.5t-138.5 540.5z " />
<glyph unicode="H" horiz-adv-x="1153" d="M166 0v1434h162v-695h497v695h162v-1434h-162v584h-497v-584h-162z" />
<glyph unicode="I" horiz-adv-x="518" d="M180 0v1434h158v-1434h-158z" />
<glyph unicode="J" horiz-adv-x="780" d="M35 78l112 110q49 -49 119 -49q84 0 139.5 65.5t55.5 182.5v1047h160v-1037q0 -193 -102.5 -298t-252.5 -105q-137 0 -231 84z" />
<glyph unicode="K" horiz-adv-x="1095" d="M184 0v1434h158v-863l498 863h178l-383 -656l389 -778h-180l-309 633l-193 -324v-309h-158z" />
<glyph unicode="L" horiz-adv-x="823" d="M172 0v1434h160v-1278h444v-156h-604z" />
<glyph unicode="M" horiz-adv-x="1314" d="M172 0v1434h131l354 -797l355 797h131v-1434h-152v1024l-334 -733l-333 733v-1024h-152z" />
<glyph unicode="N" horiz-adv-x="1200" d="M184 0v1434h138l540 -1072v1072h154v-1434h-135l-543 1061v-1061h-154z" />
<glyph unicode="O" horiz-adv-x="1138" d="M102 715q0 303 135.5 515t332 212t331.5 -212t135 -515q0 -305 -133 -513t-333.5 -208t-334 208t-133.5 513zM266 710.5q0 -235.5 87 -400.5t216 -165t216 165t87 400.5t-89 404.5t-214 169t-214 -169t-89 -404.5z" />
<glyph unicode="P" horiz-adv-x="1009" d="M168 0v1425q106 18 180 19q276 0 437 -143.5t161 -368.5q0 -215 -150.5 -356.5t-406.5 -143.5q-49 0 -65 2v-434h-156zM324 580q12 -2 49 -2q199 0 306 99t107 265q0 137 -107.5 242.5t-291.5 105.5q-43 0 -63 -4v-706z" />
<glyph unicode="Q" horiz-adv-x="1138" d="M102 715q0 303 135.5 515t332 212t331.5 -212t135 -515q0 -272 -108.5 -471t-278.5 -240v-51q0 -139 154 -139h59v-121q-51 -10 -104 -10q-123 0 -199 74.5t-76 207.5v39q-168 45 -274.5 243t-106.5 468zM266 710.5q0 -235.5 87 -400.5t216 -165t216 165t87 400.5 t-89 404.5t-214 169t-214 -169t-89 -404.5z" />
<glyph unicode="R" horiz-adv-x="1052" d="M170 0v1423q86 20 195 21q246 0 414.5 -138.5t168.5 -373.5q0 -127 -63.5 -242t-177.5 -182l227 -508h-182l-189 455q-78 -29 -188 -29l-49 2v-428h-156zM326 578q20 -2 49 -3q197 0 306.5 100.5t109.5 264.5q0 143 -112 245.5t-290 102.5q-45 0 -63 -4v-706z" />
<glyph unicode="S" horiz-adv-x="915" d="M84 158l131 112q88 -135 223 -135q92 0 154.5 65.5t62.5 157.5q0 76 -53 149t-186 169q-158 113 -226.5 210t-68.5 206q0 147 105.5 250.5t258.5 103.5q186 0 316 -156l-125 -102q-82 106 -189 106q-84 0 -144 -56t-60 -140q0 -72 47 -134.5t170 -148.5 q176 -125 248.5 -227.5t72.5 -229.5q0 -156 -113.5 -265t-267.5 -109q-215 0 -356 174z" />
<glyph unicode="T" horiz-adv-x="892" d="M55 1280v154h783v-154h-312v-1280h-159v1280h-312z" />
<glyph unicode="U" horiz-adv-x="1097" d="M156 418v1016h161v-1033q0 -117 68 -188.5t164 -71.5t163.5 72t67.5 188v1033h162v-1016q0 -190 -109.5 -307t-283.5 -117t-283.5 117t-109.5 307z" />
<glyph unicode="V" horiz-adv-x="1056" d="M80 1434h174l274 -1207l275 1207h174l-365 -1434h-168z" />
<glyph unicode="W" horiz-adv-x="1667" d="M80 1434h176l244 -1170l264 1170h139l264 -1170l244 1170h176l-336 -1434h-159l-258 1090l-259 -1090h-159z" />
<glyph unicode="X" d="M68 0l364 735l-356 699h176l270 -549l252 549h174l-338 -697l369 -737h-182l-279 584l-270 -584h-180z" />
<glyph unicode="Y" horiz-adv-x="1083" d="M33 1434h184l326 -641l323 641h185l-428 -803v-631h-162v631z" />
<glyph unicode="Z" horiz-adv-x="937" d="M82 0l545 1282h-500v152h729l-541 -1282h494v-152h-727z" />
<glyph unicode="[" horiz-adv-x="700" d="M178 -164v1761h357v-133h-205v-1495h205v-133h-357z" />
<glyph unicode="\" horiz-adv-x="950" d="M119 1575h157l555 -1757h-155z" />
<glyph unicode="]" horiz-adv-x="700" d="M166 -31h205v1495h-205v133h356v-1761h-356v133z" />
<glyph unicode="^" d="M233 1569l291 280l291 -280h-174l-117 112l-116 -112h-175z" />
<glyph unicode="_" horiz-adv-x="972" d="M100 -53h772v-156h-772v156z" />
<glyph unicode="`" d="M295 1827l154 67l194 -350h-137z" />
<glyph unicode="a" d="M80 0l166 690q106 430 207 744h143q100 -313 207 -744l166 -690h-168l-62 276h-430l-61 -276h-168zM340 426h369q-70 348 -185 760q-114 -412 -184 -760z" />
<glyph unicode="b" horiz-adv-x="1077" d="M178 4v1421q117 16 254 17q244 0 374 -105.5t130 -277.5q0 -104 -56.5 -189.5t-148.5 -126.5q109 -37 176.5 -130t67.5 -212q0 -184 -133 -297.5t-377 -113.5q-170 0 -287 14zM334 137q45 -4 129 -4q172 0 259 75t87 198q0 119 -85 190.5t-237 71.5q-94 0 -153 -6v-525z M334 811q45 -4 147 -4q141 0 220 68.5t79 183.5q0 102 -82 169.5t-233 67.5q-86 0 -131 -6v-479z" />
<glyph unicode="c" horiz-adv-x="1019" d="M109 731q0 299 137 505t321 206q111 0 206 -77t157 -222l-144 -76q-80 215 -219 215q-111 0 -203 -158.5t-92 -390.5q0 -274 89.5 -431t209.5 -157q74 0 138.5 76t97.5 205l145 -86q-59 -162 -164.5 -254t-218.5 -92q-186 0 -323 196.5t-137 540.5z" />
<glyph unicode="d" horiz-adv-x="1083" d="M166 0v1434h178q303 0 469 -182.5t166 -530.5t-155.5 -534.5t-432.5 -186.5h-225zM324 152h57q436 0 436 567q0 254 -109.5 408.5t-324.5 154.5h-59v-1130z" />
<glyph unicode="e" horiz-adv-x="948" d="M172 0v1434h668v-154h-514v-549h483v-153h-483v-424h514v-154h-668z" />
<glyph unicode="f" horiz-adv-x="888" d="M172 0v1434h631v-154h-475v-547h444v-155h-444v-578h-156z" />
<glyph unicode="g" horiz-adv-x="1116" d="M102 733q0 291 136.5 500t330.5 209q115 0 216.5 -79t160.5 -220l-141 -76q-84 215 -236 215q-123 0 -214 -164t-91 -385q0 -283 93.5 -435.5t212 -152.5t200.5 126t82 317h-262v151h418q4 -43 4 -116q0 -301 -136.5 -465t-306.5 -164q-190 0 -328.5 198.5t-138.5 540.5z " />
<glyph unicode="h" horiz-adv-x="1153" d="M166 0v1434h162v-695h497v695h162v-1434h-162v584h-497v-584h-162z" />
<glyph unicode="i" horiz-adv-x="518" d="M180 0v1434h158v-1434h-158z" />
<glyph unicode="j" horiz-adv-x="780" d="M35 78l112 110q49 -49 119 -49q84 0 139.5 65.5t55.5 182.5v1047h160v-1037q0 -193 -102.5 -298t-252.5 -105q-137 0 -231 84z" />
<glyph unicode="k" horiz-adv-x="1095" d="M184 0v1434h158v-863l498 863h178l-383 -656l389 -778h-180l-309 633l-193 -324v-309h-158z" />
<glyph unicode="l" horiz-adv-x="823" d="M172 0v1434h160v-1278h444v-156h-604z" />
<glyph unicode="m" horiz-adv-x="1314" d="M172 0v1434h131l354 -797l355 797h131v-1434h-152v1024l-334 -733l-333 733v-1024h-152z" />
<glyph unicode="n" horiz-adv-x="1200" d="M184 0v1434h138l540 -1072v1072h154v-1434h-135l-543 1061v-1061h-154z" />
<glyph unicode="o" horiz-adv-x="1138" d="M102 715q0 303 135.5 515t332 212t331.5 -212t135 -515q0 -305 -133 -513t-333.5 -208t-334 208t-133.5 513zM266 710.5q0 -235.5 87 -400.5t216 -165t216 165t87 400.5t-89 404.5t-214 169t-214 -169t-89 -404.5z" />
<glyph unicode="p" horiz-adv-x="1009" d="M168 0v1425q106 18 180 19q276 0 437 -143.5t161 -368.5q0 -215 -150.5 -356.5t-406.5 -143.5q-49 0 -65 2v-434h-156zM324 580q12 -2 49 -2q199 0 306 99t107 265q0 137 -107.5 242.5t-291.5 105.5q-43 0 -63 -4v-706z" />
<glyph unicode="q" horiz-adv-x="1138" d="M102 715q0 303 135.5 515t332 212t331.5 -212t135 -515q0 -272 -108.5 -471t-278.5 -240v-51q0 -139 154 -139h59v-121q-51 -10 -104 -10q-123 0 -199 74.5t-76 207.5v39q-168 45 -274.5 243t-106.5 468zM266 710.5q0 -235.5 87 -400.5t216 -165t216 165t87 400.5 t-89 404.5t-214 169t-214 -169t-89 -404.5z" />
<glyph unicode="r" horiz-adv-x="1052" d="M170 0v1423q86 20 195 21q246 0 414.5 -138.5t168.5 -373.5q0 -127 -63.5 -242t-177.5 -182l227 -508h-182l-189 455q-78 -29 -188 -29l-49 2v-428h-156zM326 578q20 -2 49 -3q197 0 306.5 100.5t109.5 264.5q0 143 -112 245.5t-290 102.5q-45 0 -63 -4v-706z" />
<glyph unicode="s" horiz-adv-x="915" d="M84 158l131 112q88 -135 223 -135q92 0 154.5 65.5t62.5 157.5q0 76 -53 149t-186 169q-158 113 -226.5 210t-68.5 206q0 147 105.5 250.5t258.5 103.5q186 0 316 -156l-125 -102q-82 106 -189 106q-84 0 -144 -56t-60 -140q0 -72 47 -134.5t170 -148.5 q176 -125 248.5 -227.5t72.5 -229.5q0 -156 -113.5 -265t-267.5 -109q-215 0 -356 174z" />
<glyph unicode="t" horiz-adv-x="892" d="M55 1280v154h783v-154h-312v-1280h-159v1280h-312z" />
<glyph unicode="u" horiz-adv-x="1097" d="M156 418v1016h161v-1033q0 -117 68 -188.5t164 -71.5t163.5 72t67.5 188v1033h162v-1016q0 -190 -109.5 -307t-283.5 -117t-283.5 117t-109.5 307z" />
<glyph unicode="v" horiz-adv-x="1056" d="M80 1434h174l274 -1207l275 1207h174l-365 -1434h-168z" />
<glyph unicode="w" horiz-adv-x="1667" d="M80 1434h176l244 -1170l264 1170h139l264 -1170l244 1170h176l-336 -1434h-159l-258 1090l-259 -1090h-159z" />
<glyph unicode="x" d="M68 0l364 735l-356 699h176l270 -549l252 549h174l-338 -697l369 -737h-182l-279 584l-270 -584h-180z" />
<glyph unicode="y" horiz-adv-x="1083" d="M33 1434h184l326 -641l323 641h185l-428 -803v-631h-162v631z" />
<glyph unicode="z" horiz-adv-x="937" d="M82 0l545 1282h-500v152h729l-541 -1282h494v-152h-727z" />
<glyph unicode="{" horiz-adv-x="704" d="M117 713q70 49 117 127t47 153q0 72 -18.5 191t-18.5 176q0 111 56 195.5t144 134.5l86 -93q-131 -88 -131 -247q0 -45 18.5 -152.5t18.5 -179.5q0 -100 -40 -182t-101 -123q61 -41 101 -123t40 -182q0 -72 -18.5 -179.5t-18.5 -152.5q0 -63 34 -133t97 -115l-88 -92 q-88 49 -143 134t-55 196q0 55 18.5 173.5t18.5 190.5q0 76 -47 155t-117 128z" />
<glyph unicode="|" horiz-adv-x="808" d="M328 -182v1757h153v-1757h-153z" />
<glyph unicode="}" horiz-adv-x="704" d="M172 -172q131 88 131 248q0 45 -18.5 152.5t-18.5 179.5q0 100 40 182t102 123q-61 41 -101.5 123t-40.5 182q0 72 18.5 179.5t18.5 152.5q0 63 -33.5 132.5t-97.5 114.5l86 93q88 -49 144.5 -134.5t56.5 -195.5q0 -57 -18.5 -176t-18.5 -191q0 -76 47 -153.5t117 -126.5 q-70 -49 -117 -128t-47 -155q0 -72 18.5 -190.5t18.5 -173.5q0 -111 -55.5 -196t-143.5 -134z" />
<glyph unicode="~" horiz-adv-x="1705" />
<glyph unicode="&#xa1;" horiz-adv-x="622" d="M270 1241v193h174v-193h-174zM279 0v1049h157v-1049h-157z" />
<glyph unicode="&#xa2;" horiz-adv-x="856" d="M115 715q0 133 83 236.5t218 125.5v185l110 -23v-160q158 -20 250 -164l-119 -63q-59 109 -174 109q-98 0 -161.5 -70t-63.5 -174q0 -115 65.5 -182.5t159.5 -67.5q59 0 112.5 36t80.5 97l119 -72q-43 -76 -115 -125t-154 -59v-178l-110 22v160q-131 23 -216 124.5 t-85 242.5z" />
<glyph unicode="&#xa3;" horiz-adv-x="1095" d="M180 539l21 110h159q-137 219 -137 408q0 156 106.5 271.5t270.5 115.5q248 0 385 -281l-145 -82q-70 213 -236 213q-94 0 -156.5 -71.5t-62.5 -175.5q0 -164 147 -398h414l-20 -110h-344q20 -57 20 -117q0 -166 -129 -270h473v-152h-756v152h29q92 0 155.5 74.5 t63.5 183.5q0 74 -26 129h-232z" />
<glyph unicode="&#xa4;" horiz-adv-x="1705" />
<glyph unicode="&#xa5;" horiz-adv-x="1183" d="M123 1434h182l326 -639l325 639h185l-371 -682h313l-20 -107h-350v-137h370l-20 -107h-350v-401h-162v401h-371l21 107h350v137h-371l21 107h291z" />
<glyph unicode="&#xa7;" horiz-adv-x="978" d="M137 147l133 111q82 -123 224 -123q76 0 132 40t56 101q0 53 -43 96.5t-176 100.5q-186 80 -254 151.5t-68 170.5q0 94 82 180q-82 76 -82 180q0 123 98.5 207t252.5 84q197 0 333 -166l-127 -98q-88 113 -219 112q-74 0 -125 -40t-51 -101q0 -55 44 -100t175 -103 q186 -78 254 -149.5t68 -169.5q0 -94 -82 -180q82 -72 82 -175q0 -125 -99.5 -208.5t-259.5 -83.5q-92 0 -186 41.5t-162 121.5zM285 803q0 -57 46 -104.5t183 -104.5q84 -35 139 -68q47 47 49 95q0 57 -47 105t-184 105q-53 23 -139 66q-47 -43 -47 -94z" />
<glyph unicode="&#xa8;" horiz-adv-x="1128" d="M299 1563v151h182v-151h-182zM647 1563v151h182v-151h-182z" />
<glyph unicode="&#xa9;" horiz-adv-x="1806" d="M190 715q0 303 209 516t502 213q297 0 505 -213t208 -516t-208 -515t-505 -212q-295 0 -503 213t-208 514zM305 715q0 -258 175 -440.5t421 -182.5q250 0 424 181.5t174 441.5t-175 442t-423 182q-246 0 -421 -182t-175 -442zM557 717q0 150 103.5 259t263.5 109 q186 0 295 -170l-119 -61q-61 109 -176 109q-96 0 -160 -71t-64 -175q0 -113 65.5 -180.5t160.5 -67.5q57 0 112.5 37t79.5 96l119 -72q-47 -86 -131 -136t-180 -50q-156 0 -262.5 106.5t-106.5 266.5z" />
<glyph unicode="&#xaa;" d="M80 0l166 690q106 430 207 744h143q100 -313 207 -744l166 -690h-168l-62 276h-430l-61 -276h-168zM340 426h369q-70 348 -185 760q-114 -412 -184 -760z" />
<glyph unicode="&#xab;" horiz-adv-x="985" d="M117 719q80 170 219 428l133 -53q-74 -129 -203 -375q129 -246 203 -375l-133 -55q-145 272 -219 430zM528 719q88 186 222 428l131 -53l-201 -375l201 -375l-131 -55q-138 252 -222 430z" />
<glyph unicode="&#xad;" horiz-adv-x="698" d="M111 586v155h479v-155h-479z" />
<glyph unicode="&#xae;" horiz-adv-x="1806" d="M190 715q0 303 209 516t502 213q297 0 505 -213t208 -516t-208 -515t-505 -212q-295 0 -503 213t-208 514zM305 715q0 -258 175 -440.5t421 -182.5q250 0 424 181.5t174 441.5t-175 442t-423 182q-246 0 -421 -182t-175 -442zM649 360v717q88 35 201 35q184 0 281.5 -77 t97.5 -195q0 -63 -35 -123t-94 -99l127 -258h-152l-94 218q-55 -10 -113 -11q-45 0 -92 6v-213h-127zM776 696q49 -10 107 -10q111 0 162 44t51 112q0 63 -56.5 105t-162.5 42q-55 0 -101 -10v-283z" />
<glyph unicode="&#xb0;" horiz-adv-x="894" d="M160 1128.5q0 131.5 93 224.5t224 93t224.5 -93t93.5 -224.5t-93.5 -224.5t-224.5 -93t-224 93t-93 224.5zM274 1128q0 -84 59.5 -145t143.5 -61t143.5 61t59.5 145t-59.5 142.5t-143.5 58.5t-143.5 -58.5t-59.5 -142.5z" />
<glyph unicode="&#xb2;" horiz-adv-x="821" d="M166 532l250 375q96 147 132 221t36 134q0 66 -38 108.5t-95 42.5q-96 0 -152 -147l-113 69q98 197 267 197q115 0 189.5 -78t74.5 -188q0 -84 -39 -170t-139 -230l-138 -209h312v-125h-547z" />
<glyph unicode="&#xb3;" horiz-adv-x="880" d="M176 713l119 59q55 -123 164 -123q70 0 118 51.5t48 128.5q0 94 -86 156t-242 62h-16l254 337h-291v119h520l-277 -364q129 -27 199 -111t70 -199q0 -127 -86 -215t-211 -88q-191 1 -283 187z" />
<glyph unicode="&#xb4;" horiz-adv-x="598" d="M131 1544l195 350l151 -67l-211 -283h-135z" />
<glyph unicode="&#xb8;" horiz-adv-x="1075" d="M326 -338l61 88q63 -57 139 -57q41 0 64.5 18.5t23.5 46.5q0 72 -137 76v193h121v-123q70 -10 106.5 -53.5t36.5 -102.5q0 -76 -59 -124t-147 -48q-127 0 -209 86z" />
<glyph unicode="&#xb9;" horiz-adv-x="628" d="M184 1468l338 58v-994h-135v846l-184 -35z" />
<glyph unicode="&#xba;" horiz-adv-x="1138" d="M102 715q0 303 135.5 515t332 212t331.5 -212t135 -515q0 -305 -133 -513t-333.5 -208t-334 208t-133.5 513zM266 710.5q0 -235.5 87 -400.5t216 -165t216 165t87 400.5t-89 404.5t-214 169t-214 -169t-89 -404.5z" />
<glyph unicode="&#xbb;" horiz-adv-x="985" d="M104 344q88 154 201 375q-113 221 -201 375l134 53q115 -209 221 -428q-102 -213 -221 -430zM518 344l201 375l-201 375l131 53q133 -242 221 -428q-84 -178 -221 -430z" />
<glyph unicode="&#xbc;" horiz-adv-x="1980" d="M209 1468l338 58v-994h-137v846l-185 -35zM578 -223l555 1757h133l-557 -1757h-131zM1188 205l225 786h133q-186 -621 -203 -667h240v338h131v-338h96v-119h-96v-205h-131v205h-395z" />
<glyph unicode="&#xbd;" horiz-adv-x="1961" d="M209 1468l338 58v-994h-137v846l-185 -35zM578 -223l555 1757h133l-557 -1757h-131zM1251 0l250 373q98 150 134 222.5t36 133.5q0 59 -40 104.5t-93 45.5q-100 0 -152 -146l-114 70q100 197 268 196q115 0 189.5 -77.5t74.5 -188.5q0 -84 -41 -173t-139 -228l-137 -207 h313v-125h-549z" />
<glyph unicode="&#xbe;" horiz-adv-x="2148" d="M225 696l121 54q61 -123 164 -123q68 0 116 53t48 135q0 113 -88 171t-256 58l252 338h-289v119h520l-276 -364q127 -27 197.5 -113t70.5 -209q0 -131 -86 -221t-209 -90q-187 -1 -285 192zM745 -223l558 1757h131l-555 -1757h-134zM1356 205l225 786h133 q-186 -621 -203 -667h242v338h129v-338h96v-119h-96v-205h-129v205h-397z" />
<glyph unicode="&#xbf;" horiz-adv-x="1001" d="M113 242q129 74 131 75q109 -182 272 -182q104 0 182 80t78 193q0 133 -97 220t-276 101v322h158v-220q178 -33 276.5 -149.5t98.5 -278.5q0 -174 -123 -294.5t-297 -120.5q-266 0 -403 254zM395 1243v193h174v-193h-174z" />
<glyph unicode="&#xc0;" d="M80 0l166 690q106 430 207 744h143q100 -313 207 -744l166 -690h-168l-62 276h-430l-61 -276h-168zM244 1825l153 67l195 -348h-137zM340 426h369q-70 348 -185 760q-114 -412 -184 -760z" />
<glyph unicode="&#xc1;" d="M80 0l166 690q106 430 207 744h143q100 -313 207 -744l166 -690h-168l-62 276h-430l-61 -276h-168zM340 426h369q-70 348 -185 760q-114 -412 -184 -760zM475 1544l195 348l153 -67l-211 -281h-137z" />
<glyph unicode="&#xc2;" d="M80 0l166 690q106 430 207 744h143q100 -313 207 -744l166 -690h-168l-62 276h-430l-61 -276h-168zM233 1569l291 280l291 -280h-174l-117 112l-116 -112h-175zM340 426h369q-70 348 -185 760q-114 -412 -184 -760z" />
<glyph unicode="&#xc3;" d="M80 0l166 690q106 430 207 744h143q100 -313 207 -744l166 -690h-168l-62 276h-430l-61 -276h-168zM229 1622q0 78 43 134t117 56q55 0 141 -57t121 -57q37 0 56 34q15 28 15 62q0 8 -1 16h92q6 -29 6 -57q0 -76 -42 -133t-115 -57q-55 0 -141.5 57t-121.5 57 q-39 0 -56 -32q-14 -27 -14 -63q0 -8 1 -17h-92q-9 26 -9 57zM340 426h369q-70 348 -185 760q-114 -412 -184 -760z" />
<glyph unicode="&#xc4;" d="M80 0l166 690q106 430 207 744h143q100 -313 207 -744l166 -690h-168l-62 276h-430l-61 -276h-168zM260 1569v151h182v-151h-182zM340 426h369q-70 348 -185 760q-114 -412 -184 -760zM608 1569v151h183v-151h-183z" />
<glyph unicode="&#xc5;" d="M80 0l166 690q61 260 164 608q-63 31 -103.5 93.5t-40.5 138.5q0 106 76 182t182.5 76t183 -76t76.5 -182q0 -76 -41 -138.5t-106 -91.5q86 -301 166 -610l166 -690h-168l-62 276h-430l-61 -276h-168zM340 426h369q-70 348 -185 760q-114 -412 -184 -760zM377 1530 q0 -63 43 -106.5t104 -43.5q63 0 105.5 43t42.5 107q0 61 -42 103t-106 42q-61 0 -104 -42t-43 -103z" />
<glyph unicode="&#xc6;" horiz-adv-x="1589" d="M47 0l735 1434h693v-154h-512v-547h481v-155h-481v-426h512v-152h-668v276h-440l-129 -276h-191zM438 424h369v756z" />
<glyph unicode="&#xc7;" horiz-adv-x="1019" d="M109 731q0 299 137 505t321 206q111 0 206 -77t157 -222l-144 -76q-80 215 -219 215q-111 0 -203 -158.5t-92 -390.5q0 -274 89.5 -431t209.5 -157q74 0 138.5 76t97.5 205l145 -86q-53 -145 -143 -234.5t-191 -105.5v-96q70 -10 107 -53.5t37 -102.5q0 -76 -60.5 -124 t-148.5 -48q-127 0 -209 86l64 88q63 -57 137 -57q41 0 65.5 18.5t24.5 46.5q0 72 -137 76v168q-166 39 -277.5 229.5t-111.5 499.5z" />
<glyph unicode="&#xc8;" horiz-adv-x="948" d="M172 0v1434h668v-154h-514v-547h483v-155h-483v-424h514v-154h-668zM293 1827l153 67l195 -350h-137z" />
<glyph unicode="&#xc9;" horiz-adv-x="948" d="M172 0v1434h668v-154h-514v-547h483v-155h-483v-424h514v-154h-668zM373 1544l194 350l154 -67l-211 -283h-137z" />
<glyph unicode="&#xca;" horiz-adv-x="948" d="M170 0v1434h668v-154h-512v-547h481v-155h-481v-426h512v-152h-668zM209 1569l291 280l291 -280h-175l-116 112l-117 -112h-174z" />
<glyph unicode="&#xcb;" horiz-adv-x="948" d="M170 0v1434h668v-154h-512v-547h481v-155h-481v-426h512v-152h-668zM240 1569v151h182v-151h-182zM588 1569v151h182v-151h-182z" />
<glyph unicode="&#xcc;" horiz-adv-x="522" d="M2 1827l152 67l194 -350h-135zM184 0v1434h158v-1434h-158z" />
<glyph unicode="&#xcd;" horiz-adv-x="522" d="M174 1544l195 350l153 -67l-211 -283h-137zM180 0v1434h158v-1434h-158z" />
<glyph unicode="&#xce;" horiz-adv-x="528" d="M-27 1569l291 280l291 -280h-174l-117 112l-117 -112h-174zM186 0v1434h156v-1434h-156z" />
<glyph unicode="&#xcf;" horiz-adv-x="522" d="M-4 1569v151h182v-151h-182zM182 0v1434h158v-1434h-158zM344 1569v151h182v-151h-182z" />
<glyph unicode="&#xd1;" horiz-adv-x="1200" d="M184 0v1434h138l540 -1069v1069h154v-1434h-135l-543 1059v-1059h-154zM313 1622q0 78 43 134t117 56q55 0 141 -57t121 -57q37 0 56 34q15 28 15 62q0 8 -1 16h92q6 -29 6 -57q0 -76 -42 -133t-116 -57q-55 0 -141 57t-121 57q-39 0 -56 -32q-14 -27 -14 -63q0 -8 1 -17 h-92q-9 26 -9 57z" />
<glyph unicode="&#xd2;" horiz-adv-x="1138" d="M102 715q0 303 135.5 515t332 212t331.5 -212t135 -515q0 -305 -133 -513t-333.5 -208t-334 208t-133.5 513zM266 710.5q0 -235.5 87 -400.5t216 -165t216 165t87 400.5t-89 404.5t-214 169t-214 -169t-89 -404.5zM301 1827l152 67l194 -350h-135z" />
<glyph unicode="&#xd3;" horiz-adv-x="1138" d="M102 715q0 303 135.5 515t332 212t331.5 -212t135 -515q0 -305 -133 -513t-333.5 -208t-334 208t-133.5 513zM266 710.5q0 -235.5 87 -400.5t216 -165t216 165t87 400.5t-89 404.5t-214 169t-214 -169t-89 -404.5zM489 1544l193 350l154 -67l-211 -283h-136z" />
<glyph unicode="&#xd4;" horiz-adv-x="1138" d="M102 715q0 303 135.5 515t332 212t331.5 -212t135 -515q0 -305 -133 -513t-333.5 -208t-334 208t-133.5 513zM266 710.5q0 -235.5 87 -400.5t216 -165t216 165t87 400.5t-89 404.5t-214 169t-214 -169t-89 -404.5zM279 1569l290 280l291 -280h-174l-117 112l-116 -112 h-174z" />
<glyph unicode="&#xd5;" horiz-adv-x="1138" d="M102 715q0 303 135.5 515t332 212t331.5 -212t135 -515q0 -305 -133 -513t-333.5 -208t-334 208t-133.5 513zM266 710.5q0 -235.5 87 -400.5t216 -165t216 165t87 400.5t-89 404.5t-214 169t-214 -169t-89 -404.5zM274 1622q0 78 43 134t117 56q55 0 141.5 -57t120.5 -57 q37 0 56 34q15 28 15 62q0 8 -1 16h92q6 -29 6 -57q0 -76 -42 -133t-115 -57q-55 0 -141.5 57t-121.5 57q-39 0 -56 -32q-14 -27 -14 -63q0 -8 1 -17h-92q-9 26 -9 57z" />
<glyph unicode="&#xd6;" horiz-adv-x="1138" d="M102 715q0 303 135.5 515t332 212t331.5 -212t135 -515q0 -305 -133 -513t-333.5 -208t-334 208t-133.5 513zM266 710.5q0 -235.5 87 -400.5t216 -165t216 165t87 400.5t-89 404.5t-214 169t-214 -169t-89 -404.5zM305 1569v151h182v-151h-182zM653 1569v151h183v-151 h-183z" />
<glyph unicode="&#xd9;" horiz-adv-x="1097" d="M156 418v1016h161v-1033q0 -117 68 -188.5t164 -71.5t163.5 72t67.5 188v1033h162v-1016q0 -190 -109.5 -307t-283.5 -117t-283.5 117t-109.5 307zM303 1827l154 67l194 -350h-137z" />
<glyph unicode="&#xda;" horiz-adv-x="1097" d="M156 418v1016h161v-1033q0 -117 68 -188.5t164 -71.5t163.5 72t67.5 188v1033h162v-1016q0 -190 -109.5 -307t-283.5 -117t-283.5 117t-109.5 307zM453 1544l194 350l152 -67l-211 -283h-135z" />
<glyph unicode="&#xdb;" horiz-adv-x="1097" d="M156 418v1016h161v-1033q0 -117 68 -188.5t164 -71.5t163.5 72t67.5 188v1033h162v-1016q0 -190 -109.5 -307t-283.5 -117t-283.5 117t-109.5 307zM258 1569l291 280l291 -280h-174l-117 112l-117 -112h-174z" />
<glyph unicode="&#xdc;" horiz-adv-x="1097" d="M156 418v1016h161v-1033q0 -117 68 -188.5t164 -71.5t163.5 72t67.5 188v1033h162v-1016q0 -190 -109.5 -307t-283.5 -117t-283.5 117t-109.5 307zM285 1569v151h182v-151h-182zM633 1569v151h182v-151h-182z" />
<glyph unicode="&#xdd;" horiz-adv-x="1083" d="M33 1434h184l326 -641l323 641h185l-428 -803v-631h-162v631zM467 1544l195 350l153 -67l-211 -283h-137z" />
<glyph unicode="&#xdf;" horiz-adv-x="1091" d="M156 0v1034q0 186 99 298t257 112q162 0 263.5 -102.5t101.5 -247.5q0 -80 -38 -155t-76 -131t-38 -91q0 -10 3 -19.5t6 -16.5t12.5 -16.5t14.5 -15.5t18.5 -17l20.5 -17l25 -18l27 -19q145 -109 145 -263q0 -143 -113.5 -237t-283.5 -94q-66 0 -127 12v156 q70 -20 127 -21q100 0 168 55.5t68 141.5q0 49 -43 94t-95.5 75.5t-95.5 85t-43 122.5q0 70 73 192.5t73 204.5q0 86 -54.5 136t-142.5 50q-84 0 -139.5 -70.5t-55.5 -177.5v-1040h-157z" />
<glyph unicode="&#xe0;" d="M80 0l166 690q106 430 207 744h143q100 -313 207 -744l166 -690h-168l-62 276h-430l-61 -276h-168zM244 1825l153 67l195 -348h-137zM340 426h369q-70 348 -185 760q-114 -412 -184 -760z" />
<glyph unicode="&#xe1;" d="M80 0l166 690q106 430 207 744h143q100 -313 207 -744l166 -690h-168l-62 276h-430l-61 -276h-168zM340 426h369q-70 348 -185 760q-114 -412 -184 -760zM475 1544l195 348l153 -67l-211 -281h-137z" />
<glyph unicode="&#xe2;" d="M80 0l166 690q106 430 207 744h143q100 -313 207 -744l166 -690h-168l-62 276h-430l-61 -276h-168zM233 1569l291 280l291 -280h-174l-117 112l-116 -112h-175zM340 426h369q-70 348 -185 760q-114 -412 -184 -760z" />
<glyph unicode="&#xe3;" d="M80 0l166 690q106 430 207 744h143q100 -313 207 -744l166 -690h-168l-62 276h-430l-61 -276h-168zM229 1622q0 78 43 134t117 56q55 0 141 -57t121 -57q37 0 56 34q15 28 15 62q0 8 -1 16h92q6 -29 6 -57q0 -76 -42 -133t-115 -57q-55 0 -141.5 57t-121.5 57 q-39 0 -56 -32q-14 -27 -14 -63q0 -8 1 -17h-92q-9 26 -9 57zM340 426h369q-70 348 -185 760q-114 -412 -184 -760z" />
<glyph unicode="&#xe4;" d="M80 0l166 690q106 430 207 744h143q100 -313 207 -744l166 -690h-168l-62 276h-430l-61 -276h-168zM260 1569v151h182v-151h-182zM340 426h369q-70 348 -185 760q-114 -412 -184 -760zM608 1569v151h183v-151h-183z" />
<glyph unicode="&#xe5;" d="M80 0l166 690q61 260 164 608q-63 31 -103.5 93.5t-40.5 138.5q0 106 76 182t182.5 76t183 -76t76.5 -182q0 -76 -41 -138.5t-106 -91.5q86 -301 166 -610l166 -690h-168l-62 276h-430l-61 -276h-168zM340 426h369q-70 348 -185 760q-114 -412 -184 -760zM377 1530 q0 -63 43 -106.5t104 -43.5q63 0 105.5 43t42.5 107q0 61 -42 103t-106 42q-61 0 -104 -42t-43 -103z" />
<glyph unicode="&#xe6;" horiz-adv-x="1589" d="M47 0l735 1434h693v-154h-512v-547h481v-155h-481v-426h512v-152h-668v276h-440l-129 -276h-191zM438 424h369v756z" />
<glyph unicode="&#xe7;" horiz-adv-x="1019" d="M109 731q0 299 137 505t321 206q111 0 206 -77t157 -222l-144 -76q-80 215 -219 215q-111 0 -203 -158.5t-92 -390.5q0 -274 89.5 -431t209.5 -157q74 0 138.5 76t97.5 205l145 -86q-53 -145 -143 -234.5t-191 -105.5v-96q70 -10 107 -53.5t37 -102.5q0 -76 -60.5 -124 t-148.5 -48q-127 0 -209 86l64 88q63 -57 137 -57q41 0 65.5 18.5t24.5 46.5q0 72 -137 76v168q-166 39 -277.5 229.5t-111.5 499.5z" />
<glyph unicode="&#xe8;" horiz-adv-x="948" d="M172 0v1434h668v-154h-514v-547h483v-155h-483v-424h514v-154h-668zM293 1827l153 67l195 -350h-137z" />
<glyph unicode="&#xe9;" horiz-adv-x="948" d="M172 0v1434h668v-154h-514v-547h483v-155h-483v-424h514v-154h-668zM373 1544l194 350l154 -67l-211 -283h-137z" />
<glyph unicode="&#xea;" horiz-adv-x="948" d="M170 0v1434h668v-154h-512v-547h481v-155h-481v-426h512v-152h-668zM209 1569l291 280l291 -280h-175l-116 112l-117 -112h-174z" />
<glyph unicode="&#xeb;" horiz-adv-x="948" d="M170 0v1434h668v-154h-512v-547h481v-155h-481v-426h512v-152h-668zM240 1569v151h182v-151h-182zM588 1569v151h182v-151h-182z" />
<glyph unicode="&#xec;" horiz-adv-x="522" d="M2 1827l152 67l194 -350h-135zM184 0v1434h158v-1434h-158z" />
<glyph unicode="&#xed;" horiz-adv-x="522" d="M174 1544l195 350l153 -67l-211 -283h-137zM180 0v1434h158v-1434h-158z" />
<glyph unicode="&#xee;" horiz-adv-x="528" d="M-27 1569l291 280l291 -280h-174l-117 112l-117 -112h-174zM186 0v1434h156v-1434h-156z" />
<glyph unicode="&#xef;" horiz-adv-x="522" d="M-4 1569v151h182v-151h-182zM182 0v1434h158v-1434h-158zM344 1569v151h182v-151h-182z" />
<glyph unicode="&#xf1;" horiz-adv-x="1200" d="M184 0v1434h138l540 -1069v1069h154v-1434h-135l-543 1059v-1059h-154zM313 1622q0 78 43 134t117 56q55 0 141 -57t121 -57q37 0 56 34q15 28 15 62q0 8 -1 16h92q6 -29 6 -57q0 -76 -42 -133t-116 -57q-55 0 -141 57t-121 57q-39 0 -56 -32q-14 -27 -14 -63q0 -8 1 -17 h-92q-9 26 -9 57z" />
<glyph unicode="&#xf2;" horiz-adv-x="1138" d="M102 715q0 303 135.5 515t332 212t331.5 -212t135 -515q0 -305 -133 -513t-333.5 -208t-334 208t-133.5 513zM266 710.5q0 -235.5 87 -400.5t216 -165t216 165t87 400.5t-89 404.5t-214 169t-214 -169t-89 -404.5zM301 1827l152 67l194 -350h-135z" />
<glyph unicode="&#xf3;" horiz-adv-x="1138" d="M102 715q0 303 135.5 515t332 212t331.5 -212t135 -515q0 -305 -133 -513t-333.5 -208t-334 208t-133.5 513zM266 710.5q0 -235.5 87 -400.5t216 -165t216 165t87 400.5t-89 404.5t-214 169t-214 -169t-89 -404.5zM489 1544l193 350l154 -67l-211 -283h-136z" />
<glyph unicode="&#xf4;" horiz-adv-x="1138" d="M102 715q0 303 135.5 515t332 212t331.5 -212t135 -515q0 -305 -133 -513t-333.5 -208t-334 208t-133.5 513zM266 710.5q0 -235.5 87 -400.5t216 -165t216 165t87 400.5t-89 404.5t-214 169t-214 -169t-89 -404.5zM279 1569l290 280l291 -280h-174l-117 112l-116 -112 h-174z" />
<glyph unicode="&#xf5;" horiz-adv-x="1138" d="M102 715q0 303 135.5 515t332 212t331.5 -212t135 -515q0 -305 -133 -513t-333.5 -208t-334 208t-133.5 513zM266 710.5q0 -235.5 87 -400.5t216 -165t216 165t87 400.5t-89 404.5t-214 169t-214 -169t-89 -404.5zM274 1622q0 78 43 134t117 56q55 0 141.5 -57t120.5 -57 q37 0 56 34q15 28 15 62q0 8 -1 16h92q6 -29 6 -57q0 -76 -42 -133t-115 -57q-55 0 -141.5 57t-121.5 57q-39 0 -56 -32q-14 -27 -14 -63q0 -8 1 -17h-92q-9 26 -9 57z" />
<glyph unicode="&#xf6;" horiz-adv-x="1138" d="M102 715q0 303 135.5 515t332 212t331.5 -212t135 -515q0 -305 -133 -513t-333.5 -208t-334 208t-133.5 513zM266 710.5q0 -235.5 87 -400.5t216 -165t216 165t87 400.5t-89 404.5t-214 169t-214 -169t-89 -404.5zM305 1569v151h182v-151h-182zM653 1569v151h183v-151 h-183z" />
<glyph unicode="&#xf9;" horiz-adv-x="1097" d="M156 418v1016h161v-1033q0 -117 68 -188.5t164 -71.5t163.5 72t67.5 188v1033h162v-1016q0 -190 -109.5 -307t-283.5 -117t-283.5 117t-109.5 307zM303 1827l154 67l194 -350h-137z" />
<glyph unicode="&#xfa;" horiz-adv-x="1097" d="M156 418v1016h161v-1033q0 -117 68 -188.5t164 -71.5t163.5 72t67.5 188v1033h162v-1016q0 -190 -109.5 -307t-283.5 -117t-283.5 117t-109.5 307zM453 1544l194 350l152 -67l-211 -283h-135z" />
<glyph unicode="&#xfb;" horiz-adv-x="1097" d="M156 418v1016h161v-1033q0 -117 68 -188.5t164 -71.5t163.5 72t67.5 188v1033h162v-1016q0 -190 -109.5 -307t-283.5 -117t-283.5 117t-109.5 307zM258 1569l291 280l291 -280h-174l-117 112l-117 -112h-174z" />
<glyph unicode="&#xfc;" horiz-adv-x="1097" d="M156 418v1016h161v-1033q0 -117 68 -188.5t164 -71.5t163.5 72t67.5 188v1033h162v-1016q0 -190 -109.5 -307t-283.5 -117t-283.5 117t-109.5 307zM285 1569v151h182v-151h-182zM633 1569v151h182v-151h-182z" />
<glyph unicode="&#xfd;" horiz-adv-x="1083" d="M33 1434h184l326 -641l323 641h185l-428 -803v-631h-162v631zM467 1544l195 350l153 -67l-211 -283h-137z" />
<glyph unicode="&#xff;" horiz-adv-x="1081" d="M33 1434h182l326 -643l325 643h183l-426 -803v-631h-162v631zM276 1569v151h183v-151h-183zM625 1569v151h182v-151h-182z" />
<glyph unicode="&#x152;" horiz-adv-x="2086" d="M102 715q0 303 135.5 515t332 212t331.5 -212t135 -515q0 -305 -133 -513t-333.5 -208t-334 208t-133.5 513zM266 710.5q0 -235.5 87 -400.5t216 -165t216 165t87 400.5t-89 404.5t-214 169t-214 -169t-89 -404.5zM1311 0v1434h667v-154h-514v-549h484v-153h-484v-424 h514v-154h-667z" />
<glyph unicode="&#x153;" horiz-adv-x="2086" d="M102 715q0 303 135.5 515t332 212t331.5 -212t135 -515q0 -305 -133 -513t-333.5 -208t-334 208t-133.5 513zM266 710.5q0 -235.5 87 -400.5t216 -165t216 165t87 400.5t-89 404.5t-214 169t-214 -169t-89 -404.5zM1311 0v1434h667v-154h-514v-549h484v-153h-484v-424 h514v-154h-667z" />
<glyph unicode="&#x178;" horiz-adv-x="1081" d="M33 1434h182l326 -643l325 643h183l-426 -803v-631h-162v631zM276 1569v151h183v-151h-183zM625 1569v151h182v-151h-182z" />
<glyph unicode="&#x2c6;" d="M233 1569l291 280l291 -280h-174l-117 112l-116 -112h-175z" />
<glyph unicode="&#x2dc;" horiz-adv-x="1216" d="M313 1622q0 78 43 134t117 56q55 0 141 -57t121 -57q37 0 56 34q15 28 15 62q0 8 -1 16h92q6 -29 6 -57q0 -76 -42 -133t-116 -57q-55 0 -141 57t-121 57q-39 0 -56 -32q-14 -27 -14 -63q0 -8 1 -17h-92q-9 26 -9 57z" />
<glyph unicode="&#x2013;" horiz-adv-x="972" d="M100 586v155h772v-155h-772z" />
<glyph unicode="&#x2014;" horiz-adv-x="1585" d="M96 586v155h1393v-155h-1393z" />
<glyph unicode="&#x2018;" horiz-adv-x="479" d="M119 1171q0 139 69 328h109q-14 -133 -14 -221q0 -145 14 -215h-168q-10 42 -10 108z" />
<glyph unicode="&#x2019;" horiz-adv-x="466" d="M170 1063q16 137 16 250q0 96 -14 186h168q8 -51 8 -108q0 -152 -69 -328h-109z" />
<glyph unicode="&#x201a;" horiz-adv-x="456" d="M119 215h168q10 -47 10 -109q0 -145 -70 -325h-108q14 129 14 219q0 145 -14 215z" />
<glyph unicode="&#x201c;" horiz-adv-x="831" d="M135 1171q0 147 70 328h108q-14 -129 -14 -219q0 -147 14 -217h-168q-10 49 -10 108zM467 1171q0 147 70 328h108q-14 -129 -14 -219q0 -147 14 -217h-170q-8 51 -8 108z" />
<glyph unicode="&#x201d;" horiz-adv-x="831" d="M186 1063q14 129 15 219q0 147 -15 217h170q8 -51 9 -108q0 -147 -70 -328h-109zM518 1063q14 129 14 219q0 147 -14 217h168q10 -49 10 -108q0 -147 -69 -328h-109z" />
<glyph unicode="&#x201e;" horiz-adv-x="821" d="M137 215h168q10 -47 10 -109q0 -145 -69 -325h-109q14 129 15 219q-1 145 -15 215zM469 215h168q8 -49 8 -109q0 -150 -70 -325h-106q14 121 14 250q0 112 -14 184z" />
<glyph unicode="&#x2022;" horiz-adv-x="1171" d="M131 723q221 193 455 455q233 -262 454 -455q-221 -193 -454 -455q-234 262 -455 455zM338 723q135 -119 248 -258q113 139 248 258q-135 119 -248 258q-113 -139 -248 -258z" />
<glyph unicode="&#x2026;" horiz-adv-x="1722" d="M193 0v205h188v-205h-188zM774 0v205h189v-205h-189zM1356 0v205h188v-205h-188z" />
<glyph unicode="&#x2039;" horiz-adv-x="571" d="M117 719q80 170 219 428l133 -53q-74 -129 -203 -375q129 -246 203 -375l-133 -55q-145 272 -219 430z" />
<glyph unicode="&#x203a;" horiz-adv-x="571" d="M104 344l201 375l-201 375l132 53q133 -242 221 -428q-84 -178 -221 -430z" />
<glyph unicode="&#x20ac;" horiz-adv-x="1179" d="M106 553l21 104h143v140h-164l21 106h156q39 236 163.5 387.5t280.5 151.5q109 0 205 -77t160 -222l-144 -76q-80 215 -221 215q-88 0 -169 -106.5t-112 -272.5h404l-23 -106h-393q-2 -10 -2 -64q0 -51 2 -76h416l-23 -104h-383q27 -193 108 -300.5t181 -107.5 q74 0 138.5 76t97.5 205l145 -86q-59 -162 -164.5 -254t-218.5 -92q-160 0 -288 147.5t-162 411.5h-175z" />
<glyph unicode="&#x2122;" horiz-adv-x="2207" d="M55 1280v154h783v-154h-312v-1280h-159v1280h-312zM1065 0v1434h131l354 -797l355 797h131v-1434h-152v1024l-334 -733l-333 733v-1024h-152z" />
<glyph unicode="&#xe000;" horiz-adv-x="1435" d="M0 1435h1435v-1435h-1435v1435z" />
<glyph unicode="&#xfb01;" horiz-adv-x="1406" d="M172 0v1434h631v-154h-475v-547h444v-155h-444v-578h-156zM1069 0v1434h158v-1434h-158z" />
<glyph unicode="&#xfb02;" horiz-adv-x="1712" d="M172 0v1434h631v-154h-475v-547h444v-155h-444v-578h-156zM1061 0v1434h160v-1278h444v-156h-604z" />
<glyph unicode="&#xfb03;" horiz-adv-x="2295" d="M172 0v1434h631v-154h-475v-547h444v-155h-444v-578h-156zM1061 0v1434h631v-154h-475v-547h444v-155h-444v-578h-156zM1958 0v1434h158v-1434h-158z" />
<glyph unicode="&#xfb04;" horiz-adv-x="2600" d="M172 0v1434h631v-154h-475v-547h444v-155h-444v-578h-156zM1061 0v1434h631v-154h-475v-547h444v-155h-444v-578h-156zM1950 0v1434h159v-1278h445v-156h-604z" />
<glyph horiz-adv-x="512" />
</font>
</defs>
</svg>
